<svg height="511pt" viewBox="0 0 511.99921 511" width="511pt" xmlns="http://www.w3.org/2000/svg"><path d="m271.273438 397.945312-2.804688 1.226563-240.972656 105.566406c-16.019532-16.019531-17.359375-30.191406-13.082032-45.234375 1.585938-5.589844 3.949219-11.308594 6.621094-17.28125 5.84375-13.03125 13.15625-27.304687 17.117188-44.277344 10.667968-45.710937-30.542969-54.855468-30.542969-54.855468 15.9375-26.683594 88.128906-40.511719 155.957031-29.226563 7.636719 1.273438 15.226563 2.855469 22.671875 4.785157l75.890625 7.679687 8.3125 65.085937zm0 0" fill="#f94141"/><path d="m270.441406 391.414062-1.972656 7.757813-240.972656 105.566406c-16.019532-16.019531-17.359375-30.191406-13.082032-45.234375 1.230469-6.125 3.515626-11.875 6.621094-17.28125 20.753906-35.980468 78.441406-56.101562 108.46875-63.171875 27.429688-6.453125 42.675782-38.519531 34.0625-65.1875 7.636719 1.273438 15.226563 2.855469 22.671875 4.785157l75.890625 7.679687zm0 0" fill="#e22b2b"/><path d="m432.097656 446.925781v57.8125h-272.734375v-57.8125c0-75.3125 61.050781-136.371093 136.363281-136.371093 10.65625 0 21.027344 1.226562 30.980469 3.535156 25.222657 5.859375 47.753907 18.71875 65.449219 36.40625 24.675781 24.683594 39.941406 58.773437 39.941406 96.429687zm0 0" fill="#357fbc"/><path d="m432.097656 446.925781v57.8125h-210.769531v-57.8125c0-64.65625 45-118.808593 105.378906-132.835937 25.222657 5.859375 47.753907 18.71875 65.449219 36.40625 24.675781 24.683594 39.941406 58.773437 39.941406 96.429687zm0 0" fill="#589ce0"/><path d="m159.359375 164.621094c-6.816406-3.5625-14.566406-5.574219-22.785156-5.574219-27.214844 0-49.265625 22.050781-49.265625 49.265625s22.050781 49.265625 49.265625 49.265625c8.523437 0 16.539062-2.160156 23.527343-5.960937h271.996094c6.988282 3.800781 15.003906 5.960937 23.523438 5.960937 27.214844 0 49.269531-22.050781 49.269531-49.265625s-22.054687-49.265625-49.269531-49.265625c-8.214844 0-15.96875 2.011719-22.785156 5.574219" fill="#e8b182"/><path d="m432.097656 144.488281v92.867188c0 66.453125-47.539062 121.804687-110.46875 133.902343-8.382812 1.617188-17.046875 2.460938-25.902344 2.460938-75.3125 0-136.363281-61.050781-136.363281-136.363281v-92.867188c0-75.3125 61.050781-136.375 136.363281-136.375 8.855469 0 17.519532.84375 25.902344 2.460938 27.273438 5.242187 51.652344 18.609375 70.527344 37.484375 24.675781 24.683594 39.941406 58.773437 39.941406 96.429687zm0 0" fill="#e8b182"/><path d="m432.097656 144.488281v92.867188c0 66.453125-47.539062 121.804687-110.46875 133.902343-62.929687-12.097656-110.46875-67.449218-110.46875-133.902343v-92.867188c0-66.453125 47.539063-121.816406 110.46875-133.914062 27.273438 5.242187 51.652344 18.609375 70.527344 37.484375 24.675781 24.683594 39.941406 58.773437 39.941406 96.429687zm0 0" fill="#ffd0a6"/><path d="m432.101562 144.488281v20.132813c-161.445312-.203125-215.109374-66.230469-215.109374-66.230469 0 27.425781-27.429688 56.367187-57.628907 66.230469v-20.132813c0-75.3125 61.050781-136.375 136.363281-136.375 8.859376 0 17.523438.84375 25.902344 2.460938 27.277344 5.242187 51.65625 18.609375 70.53125 37.484375 24.671875 24.683594 39.941406 58.773437 39.941406 96.429687zm0 0" fill="#5b5b68"/><path d="m321.625 10.574219c-48.222656 9.273437-87.402344 43.941406-103.09375 89.542969-1.046875-1.105469-1.546875-1.726563-1.546875-1.726563 0 27.425781-27.425781 56.367187-57.625 66.230469v-20.132813c0-75.3125 61.050781-136.375 136.363281-136.375 8.855469 0 17.519532.84375 25.902344 2.460938zm0 0" fill="#40404c"/><path d="m455.113281 151.425781c-5.214843 0-10.402343.75-15.398437 2.148438v-9.089844c0-38.460937-14.976563-74.617187-42.175782-101.8125-2.976562-2.976563-7.800781-2.976563-10.773437 0-2.972656 2.972656-2.972656 7.796875 0 10.773437 24.320313 24.316407 37.710937 56.648438 37.710937 91.039063v12.453125c-44.4375-.675781-104.90625-7.039062-155.867187-31.738281-32.28125-15.648438-45.59375-31.484375-45.707031-31.617188-2.03125-2.503906-5.421875-3.453125-8.460938-2.375-3.039062 1.078125-5.070312 3.953125-5.070312 7.179688 0 19.988281-18.582032 43.304687-42.390625 54.925781v-8.828125c0-70.992187 57.753906-128.75 128.746093-128.75 24.191407 0 47.765626 6.746094 68.171876 19.507813 3.566406 2.230468 8.269531 1.144531 10.496093-2.421876 2.230469-3.566406 1.148438-8.265624-2.417969-10.496093-22.832031-14.277344-49.195312-21.824219-76.25-21.824219-79.394531 0-143.988281 64.589844-143.988281 143.984375v9.027344c-4.921875-1.359375-10.03125-2.082031-15.164062-2.082031-31.367188 0-56.886719 25.519531-56.886719 56.882812 0 31.367188 25.519531 56.886719 56.886719 56.886719 5.902343 0 11.773437-.925781 17.367187-2.710938 2.824219 15.988281 8.304688 31.066407 15.953125 44.78125-30.925781-5.710937-64.617187-6.570312-94.976562-2.210937-37.171875 5.339844-64.085938 17.777344-73.851563 34.125-1.246094 2.089844-1.402344 4.652344-.453125 6.894531.953125 2.238281 2.9375 3.890625 5.308594 4.441406.089844.023438 8.921875 2.132813 16.273437 8.894531 9.355469 8.601563 12.230469 20.984376 8.539063 36.800782-3.132813 13.433594-8.472656 25.054687-13.636719 36.292968-11.753906 25.582032-22.855468 49.746094 5.011719 77.617188 1.460937 1.457031 3.40625 2.230469 5.390625 2.230469 1.03125 0 2.070312-.210938 3.058594-.640625l28.476562-12.484375c3.851563-1.691407 5.609375-6.183594 3.917969-10.039063-1.691406-3.851562-6.183594-5.605468-10.039063-3.917968l-23.53125 10.316406c-15.984374-18.535156-9.214843-33.269532 1.558594-56.71875 5.226563-11.371094 11.148438-24.261719 14.628906-39.195313 3.824219-16.375 2.085938-30.519531-5.160156-42.035156-5.605468-8.910156-13.46875-14.421875-19.894531-17.699219 10.886719-8.898437 31.335937-16.175781 56.570313-19.800781 33.707031-4.84375 71.75-2.894531 104.820312 5.292969 4.609375 5.941406 9.667969 11.511718 15.132812 16.660156-27.671874 26.035156-43.882812 61.753906-45.199218 99.808594l-74.144532 32.507812c-3.851562 1.6875-5.605468 6.179688-3.917968 10.035156 1.253906 2.859376 4.050781 4.5625 6.984375 4.5625 1.019531 0 2.058593-.207031 3.054687-.644531l67.925782-29.777343v46.152343c0 4.207031 3.410156 7.617188 7.621093 7.617188h272.734375c4.210938 0 7.621094-3.410157 7.621094-7.617188v-57.8125c0-38.449219-14.980469-74.609375-42.175781-101.816406-1.023438-1.023437-2.070313-2.027344-3.125-3.019531 22.09375-20.828125 37.621093-48.542969 43.105469-79.675782 5.660156 1.832032 11.605468 2.785157 17.589843 2.785157 31.367188 0 56.886719-25.519531 56.886719-56.886719 0-31.363281-25.519531-56.886719-56.886719-56.886719zm-318.539062 98.535157c-22.964844 0-41.648438-18.683594-41.648438-41.648438s18.683594-41.648438 41.648438-41.648438c5.28125 0 10.363281.96875 15.167969 2.855469v12.457031c-4.46875-2.582031-9.648438-4.070312-15.167969-4.070312-16.765625 0-30.40625 13.640625-30.40625 30.40625 0 16.769531 13.640625 30.410156 30.40625 30.410156 4.207031 0 7.617187-3.414062 7.617187-7.621094 0-4.207031-3.410156-7.617187-7.617187-7.617187-8.363281 0-15.171875-6.804687-15.171875-15.171875 0-8.363281 6.808594-15.167969 15.171875-15.167969 8.339843 0 15.121093 6.761719 15.167969 15.089844v29.117187c0 3.234376.117187 6.441407.328124 9.625-4.902343 1.957032-10.175781 2.984376-15.496093 2.984376zm250.191406 105.921874c24.320313 24.328126 37.714844 56.660157 37.714844 91.042969v50.191407h-257.5v-50.191407c0-36.277343 15.152343-70.523437 41.769531-94.910156 24.179688 18.386719 54.324219 29.320313 86.976562 29.320313 32.660157 0 62.808594-10.9375 86.992188-29.328126 1.375 1.261719 2.726562 2.550782 4.046875 3.875zm-91.039063 10.214844c-70.992187 0-128.75-57.753906-128.75-128.746094v-28.960937c0-.023437.003907-.050781.003907-.078125 0-.050781-.003907-.105469-.003907-.15625v-38.199219c14.277344-5.648437 27.683594-15.015625 38.203126-26.789062 8.238281-9.214844 14.042968-19.25 17.050781-29.261719 7.976562 6.640625 20.515625 15.566406 38.566406 24.4375 30.4375 14.949219 83.242187 32.675781 163.679687 33.835938v65.171874c0 70.992188-57.757812 128.746094-128.75 128.746094zm159.386719-116.136718c-5.402343 0-10.753906-1.066407-15.722656-3.082032.207031-3.152344.324219-6.328125.324219-9.527344v-27.210937s0-1.195313 0-1.828125c0-8.363281 7.035156-15.167969 15.398437-15.167969s15.171875 6.804688 15.171875 15.167969c0 8.367188-6.804687 15.171875-15.171875 15.171875-4.207031 0-7.617187 3.410156-7.617187 7.617187 0 4.207032 3.410156 7.617188 7.617187 7.617188 16.765625 0 30.40625-13.640625 30.40625-30.40625s-13.640625-30.40625-30.40625-30.40625c-5.617187 0-10.878906 1.535156-15.398437 4.203125v-12.492187c4.871094-1.949219 10.035156-2.953126 15.398437-2.953126 22.964844 0 41.648438 18.683594 41.648438 41.648438s-18.683594 41.648438-41.648438 41.648438zm0 0"/><path d="m328.25 268.984375c-17.726562 17.726563-46.578125 17.726563-64.304688 0-2.976562-2.976563-7.796874-2.976563-10.773437 0-2.976563 2.972656-2.976563 7.796875 0 10.773437 11.835937 11.832032 27.378906 17.75 42.925781 17.75s31.089844-5.917968 42.925782-17.75c2.976562-2.976562 2.976562-7.800781 0-10.773437-2.976563-2.976563-7.796876-2.976563-10.773438 0zm0 0"/><path d="m236.324219 187.988281c-4.210938 0-7.621094 3.410157-7.621094 7.617188v33.519531c0 4.207031 3.410156 7.617188 7.621094 7.617188 4.207031 0 7.617187-3.410157 7.617187-7.617188v-33.519531c0-4.207031-3.410156-7.617188-7.617187-7.617188zm0 0"/><path d="m355.140625 187.988281c-4.210937 0-7.621094 3.410157-7.621094 7.617188v33.519531c0 4.207031 3.410157 7.617188 7.621094 7.617188 4.207031 0 7.617187-3.410157 7.617187-7.617188v-33.519531c0-4.207031-3.410156-7.617188-7.617187-7.617188zm0 0"/><path d="m146.007812 409.59375c-1.082031-4.066406-5.257812-6.484375-9.324218-5.398438-.457032.121094-46.300782 12.367188-80.628906 23.476563-4.003907 1.292969-6.203126 5.589844-4.90625 9.59375 1.042968 3.222656 4.03125 5.273437 7.246093 5.273437.78125 0 1.570313-.121093 2.347657-.371093 33.949218-10.984375 79.414062-23.128907 79.867187-23.25 4.066406-1.085938 6.484375-5.257813 5.398437-9.324219zm0 0"/></svg>